<?xml version="1.0" encoding="utf-8"?>
<svg viewBox="0 0 500 500" xmlns="http://www.w3.org/2000/svg">
  <path d="M 27.821 27.555 C 28.368 27.145 28.86 26.653 29.27 26.051 C 28.723 26.297 28.176 26.462 27.629 26.516 C 28.231 26.133 28.668 25.614 28.887 24.93 C 28.313 25.258 27.711 25.505 27.055 25.614 C 26.782 25.34 26.454 25.122 26.098 24.958 C 25.743 24.794 25.36 24.712 24.95 24.712 C 24.43 24.712 23.965 24.848 23.528 25.094 C 23.09 25.368 22.735 25.723 22.489 26.161 C 22.215 26.598 22.106 27.09 22.106 27.583 C 22.106 27.801 22.106 28.02 22.161 28.239 C 20.985 28.184 19.891 27.911 18.852 27.364 C 17.813 26.844 16.965 26.133 16.254 25.231 C 15.981 25.696 15.844 26.188 15.844 26.68 C 15.844 27.172 15.954 27.637 16.2 28.047 C 16.418 28.485 16.747 28.813 17.129 29.087 C 16.665 29.087 16.227 28.95 15.844 28.704 L 15.844 28.758 C 15.844 29.442 16.063 30.044 16.5 30.563 C 16.938 31.11 17.485 31.438 18.141 31.575 C 17.868 31.63 17.622 31.657 17.375 31.657 C 17.211 31.657 17.02 31.657 16.856 31.63 C 17.02 32.204 17.348 32.669 17.84 33.051 C 18.332 33.434 18.879 33.598 19.536 33.598 C 18.469 34.419 17.266 34.829 15.954 34.829 C 15.68 34.829 15.461 34.829 15.27 34.801 C 16.582 35.676 18.059 36.087 19.672 36.087 C 21.34 36.087 22.817 35.676 24.129 34.801 C 25.305 34.036 26.235 33.024 26.891 31.712 C 27.52 30.508 27.848 29.223 27.848 27.911 C 27.848 27.747 27.821 27.637 27.821 27.555 Z" style="fill: #ffffff ;"/>
  <rect opacity="0.9" width="36.062" height="34.805" rx="24" x="4.753" y="12.183" style="fill: rgb(40, 47, 52);"/>
</svg>